<svg xmlns="http://www.w3.org/2000/svg" viewBox="0 0 170.2 230.3"><title>certif</title><path d="M198,118.2c-.4-7-1-14-1.2-21-.7-19.4-1.5-38.8-1.8-58.2-.7-32-65.4-23.2-86.1-23.3S94.1,21.3,89.1,39,77.6,60.1,61.2,64.8l1.7,3.7-13-4.8c1.9,29.2,3,58.4,5,87.6,1.6,23.6-.9,52.3,30.3,51.2,12.8-.4,25.7-.1,38.6.4-7.9.9-15.9,2.3-23.8,2.6-9.6.4-19.2.2-28.8-.2-23.9-.9-20.1-51-20.9-66.1-1.5-26.2-11.9-66,2.5-87.9s29.4-39.7,55.4-38.7c14.8.6,74.5-6.2,83.3,5.6s7.2,24.2,8.2,36.5c1.7,20.5,2.7,43.1.1,63.5ZM87.8,20.5,52,58.5C72.3,63.4,89.2,49.5,87.8,20.5Z" transform="translate(-45.3 -11.2)"/><path d="M197.2,196.9l-9.8,3.6c10.4,4.7,13.8,18.3,18.7,28.1-9.4-.8-10.5,0-15.5,10.6l-14.9-30.6,5.3-2.5c-21.6.1-35.5-1.1-45.3-22.3-1.4-2.9-5.9-3.6-7.3-7.4-.3-.9-.1-15,.2-17.5.6-5.3,2.4-26.2,11-26.8,16.7-1,10.3-15.7,31.8-10.7,7.7,1.8,21.1,3.1,27.3,8.2,8.6,7.2,11.8,19.5,12.2,30s0,30.2-13.8,37.3Zm-61.4-60.4c-1.7,20.2-9.4,33.9,5.5,50.3,8.1,9,29.4,26.3,43.7,12.4,5.3-5.2,11.6-6.9,16.2-12.1s1.8-10.5,9.3-15.6c-5.9-7-3.4-18.7-6.6-26.4s-10.1-9.2-17-13.4c-8.7-5.2-11.3-8.9-23.1-6.7-5.1,1-6.5.9-10.6,2.1S143,134.6,135.8,136.5Zm53.7,92.9,10.3-5.2c-.6-1.4-5.4-16.3-8.9-15.6s-6.8,2.1-10.2,3.2Z" transform="translate(-45.3 -11.2)"/><path d="M168.1,89.4c-21.2,1.3-41.8.1-62.9.9-7.6.3-15.2,1.3-22.8,1.5-1.8,0-3.6-1.8-5.8-3C81.9,84,160.5,84.1,168.1,89.4Z" transform="translate(-45.3 -11.2)"/><path d="M79.9,67.4c4.4-.3,8.7-1,13-1,18.9-.3,59.4-8.5,75.6-.3-4.6,4-12.8,2.6-18.6,2.8-18.5.7-54,9.1-70.2-.3Z" transform="translate(-45.3 -11.2)"/><path d="M154.8,238.4c-3.7-10.3-22.3-10.7-8.5-27.3,6.3-7.7-1.6-3.5,4.7-5.4-2.6.8,15.3,5.7,13.7,3.9C169.3,214.8,158.5,233.2,154.8,238.4Zm-8.6-13,10.4,4.6c.8-3.2,1.9-7.5,2.7-10.9l-9.9-6.3Z" transform="translate(-45.3 -11.2)"/><path d="M166.1,107.2l-90,4.5-.5-2.1c3-.9,5.9-2.4,8.8-2.5,24.4-1,48.8-1.7,73.3-2.5H166Z" transform="translate(-45.3 -11.2)"/><path d="M181.4,235.1l-9.6-19-9.3,24.3-1.9-.7c3.3-10.2,6.6-20.5,10.1-31.1C176.1,212.5,182.9,230.1,181.4,235.1Z" transform="translate(-45.3 -11.2)"/><path d="M113,147.6c-9.8,1-24.7,5-33.8.9,4.1-5.9,25.3-2.8,32.4-2.9C111.8,145.6,111.9,146.1,113,147.6Z" transform="translate(-45.3 -11.2)"/><path d="M77.6,172.2c1.6-10.1,26.7-6,33.4-6,.5,0,1,.6,2.3,1.5Z" transform="translate(-45.3 -11.2)"/><path d="M81.2,127.6l32.7-1.6c-3.6,5-27.4,6.7-32.7,3.3Z" transform="translate(-45.3 -11.2)"/><path d="M197.1,196.9c1.7,2.8,3.9,5.3,5.2,8.3,4.3,9.9,8.4,20,12.6,30l-1.6.7c-5.3-11.5-15.8-26.1-16.1-39Z" transform="translate(-45.3 -11.2)"/><path d="M138.1,232.5c-2.4-8.1,3-28.8,7.7-30.9Z" transform="translate(-45.3 -11.2)"/><path d="M133.9,176.7c6.2-19.1-1.8-35.3,20-43.4,10.2-3.8,19.2-5.2,29.2-1.7s11.7,15.4,21.1,19.2a12.1,12.1,0,0,1,2,1.4c-5.1,9.6-.6,6.7-2.5,13.9-.7,2.5-2.6,5.2-3.3,7.9-2.5,9.4-5.2,17.3-16.6,21-7.5,2.4-20.2,4-27.6,1.6-11.1-3.6-12-18.7-20.4-19A6.7,6.7,0,0,1,133.9,176.7Zm33.9,14.9c40.2-2.6,35.9-59.6-3.4-57.2C132.9,136.4,134.2,193.8,167.8,191.6Z" transform="translate(-45.3 -11.2)"/><path d="M164.8,183.3c-5.8-8.7-13.7-14.7-6.3-24a38.8,38.8,0,0,1,6.9,6.5c4.3-4.7,8.1-9.4,12.3-13.6,7.2-7.2,15.6-2.1,7.6,7.6S173,176.4,164.8,183.3Zm1.7-5.3,18.1-24.4c.4-.5-.4-1.8-.8-3.6-5,5.6-9.6,10.4-13.8,15.4s-5.6,5.4-10,1.7C161.9,170.4,163.9,173.6,166.5,178Z" transform="translate(-45.3 -11.2)"/><path d="M199,118.5c-.3-15.5-.7-31-1-46.5,0-5.3.8-10.7.4-16-.9-12.5-1.9-23.1-7.9-34" transform="translate(-45.3 -11.2)" fill="none" stroke="#000" stroke-linecap="round" stroke-linejoin="round" stroke-width="2"/><path d="M184.5,17.5,129.1,15c-11.2-.5-33-6.6-41.6,2.5C76.8,28.9,53.9,45.8,48.9,61s2.4,41.3,3,58.5c.8,20.4-7.8,85.1,25.1,84.5,15.9-.3,31.8-.3,47.5-2.5" transform="translate(-45.3 -11.2)" fill="none" stroke="#000" stroke-linecap="round" stroke-linejoin="round" stroke-width="2"/><path d="M166.5,105.5c-6.3.5-12.7,1.2-19,1.5-20.5,1-41,1-61.5,2.1a94.4,94.4,0,0,0-10.5,1.4" transform="translate(-45.3 -11.2)" fill="none" stroke="#000" stroke-linecap="round" stroke-linejoin="round" stroke-width="2"/><path d="M168.5,88.5l-28,.5" transform="translate(-45.3 -11.2)" fill="none" stroke="#000" stroke-linecap="round" stroke-linejoin="round" stroke-width="2"/><path d="M134,88.8,98.5,88" transform="translate(-45.3 -11.2)" fill="none" stroke="#000" stroke-linecap="round" stroke-linejoin="round" stroke-width="2"/><path d="M91.5,88.5l-14-.5" transform="translate(-45.3 -11.2)" fill="none" stroke="#000" stroke-linecap="round" stroke-linejoin="round" stroke-width="2"/><path d="M202.5,226c-3.6-8.4-5-15.1-12.5-20.5" transform="translate(-45.3 -11.2)" fill="none" stroke="#000" stroke-linecap="round" stroke-linejoin="round" stroke-width="2"/><path d="M185.5,202.5c4.7-7.6,13-12,17.9-19,1.4-2,9.7-13.2,7.9-15.4-4.7-6-3-18.4-5.2-24.4-1.7-4.4-7.1-7.6-9.4-14.5-9.4,4.1-5.6-1.5-12.8-3.1s-9.2-2.1-18.4-2c-6.7,0-6.5-1.7-12.8.4-4.7,1.6-4.9,8.5-13.2,9.4-6.8.8-9.6,16.7-10.4,23-.2,1.8,1.1,20.5,1,20,1.3,4.4,6.4,3.5,8.2,7.4,9.9,20.3,23.5,17.8,46.2,19.7" transform="translate(-45.3 -11.2)" fill="none" stroke="#000" stroke-linecap="round" stroke-linejoin="round" stroke-width="2"/><path d="M89,17c.5,15.3.4,33.7-15.6,41.9A30.5,30.5,0,0,1,49.5,61" transform="translate(-45.3 -11.2)" fill="none" stroke="#000" stroke-linecap="round" stroke-linejoin="round" stroke-width="2"/><path d="M168.5,65.5c-29.7,1.3-59.3,3-89,3" transform="translate(-45.3 -11.2)" fill="none" stroke="#000" stroke-linecap="round" stroke-linejoin="round" stroke-width="2"/><path d="M197,197c5.8,13.2,11.7,26.3,17.5,39.5" transform="translate(-45.3 -11.2)" fill="none" stroke="#000" stroke-linecap="round" stroke-linejoin="round" stroke-width="2"/><path d="M112.5,167c-12.1.7-23.5.4-35,4.5" transform="translate(-45.3 -11.2)" fill="none" stroke="#000" stroke-linecap="round" stroke-linejoin="round" stroke-width="2"/><path d="M113.5,127l-32,2" transform="translate(-45.3 -11.2)" fill="none" stroke="#000" stroke-linecap="round" stroke-linejoin="round" stroke-width="2"/><path d="M205.5,170c-5.6-1.4-10,3.5-9.5,10.5" transform="translate(-45.3 -11.2)" fill="none" stroke="#000" stroke-linecap="round" stroke-linejoin="round" stroke-width="2"/><path d="M176.5,193.5l-15.5,1" transform="translate(-45.3 -11.2)" fill="none" stroke="#000" stroke-linecap="round" stroke-linejoin="round" stroke-width="2"/><path d="M160.5,194.5c-9.7-7.5-13.6-10.2-21-20.5" transform="translate(-45.3 -11.2)" fill="none" stroke="#000" stroke-linecap="round" stroke-linejoin="round" stroke-width="2"/><path d="M164,182c6.5-7.7,13.3-15.1,19.3-23.1,2.2-2.9,6.3-7.2,0-11.1-7.1,8.3-12.6,21.8-24.3,15.2-2.8,4.5-1.2,8.6,6.5,16" transform="translate(-45.3 -11.2)" fill="none" stroke="#000" stroke-linecap="round" stroke-linejoin="round" stroke-width="2"/><path d="M171,214.5l-9.5,26" transform="translate(-45.3 -11.2)" fill="none" stroke="#000" stroke-linecap="round" stroke-linejoin="round" stroke-width="2"/><path d="M112.5,146.5c-10.3.2-20.9-.5-31,1.5" transform="translate(-45.3 -11.2)" fill="none" stroke="#000" stroke-linecap="round" stroke-linejoin="round" stroke-width="2"/><path d="M177.5,209.5c3.3,6.7,6.6,13.4,10,20,.7,1.3,2,2.3,3,3.5" transform="translate(-45.3 -11.2)" fill="none" stroke="#000" stroke-linecap="round" stroke-linejoin="round" stroke-width="2"/><path d="M160.5,214c1.9,6.5-2.2,15.3-4.5,21.2-2.5-4.9-5.2-8.6-12.8-5.9,2.3-7.4,4-13.1,5.8-18.8" transform="translate(-45.3 -11.2)" fill="none" stroke="#000" stroke-linecap="round" stroke-linejoin="round" stroke-width="2"/><path d="M171,213.8c5.3,6.5,8,12.6,11.5,20.2" transform="translate(-45.3 -11.2)" fill="none" stroke="#000" stroke-linecap="round" stroke-linejoin="round" stroke-width="2"/><path d="M172.5,132.5c-11.3-2.3-14.7,3.8-24,7.5" transform="translate(-45.3 -11.2)" fill="none" stroke="#000" stroke-linecap="round" stroke-linejoin="round" stroke-width="2"/><path d="M143,146c-2.5,8.3-3.9,12.1-3.4,21,.4,6.8-.2,7.9-6.1,9" transform="translate(-45.3 -11.2)" fill="none" stroke="#000" stroke-linecap="round" stroke-linejoin="round" stroke-width="2"/><path d="M143.5,203.5c-2.2,9.7-4.3,19.3-6.5,29" transform="translate(-45.3 -11.2)" fill="none" stroke="#000" stroke-linecap="round" stroke-linejoin="round" stroke-width="2"/><path d="M149,204.5c-.3,4.9,3.6,6.9,6.5,9.5" transform="translate(-45.3 -11.2)" fill="none" stroke="#000" stroke-linecap="round" stroke-linejoin="round" stroke-width="2"/><path d="M180,133l10.5,6" transform="translate(-45.3 -11.2)" fill="none" stroke="#000" stroke-linecap="round" stroke-linejoin="round" stroke-width="2"/><path d="M191,139c2.5,4.3,5.3,11.3,9,15" transform="translate(-45.3 -11.2)" fill="none" stroke="#000" stroke-linecap="round" stroke-linejoin="round" stroke-width="2"/><path d="M204.5,229.5c-5.7-8.6-14.2,2.1-14,9" transform="translate(-45.3 -11.2)" fill="none" stroke="#000" stroke-linecap="round" stroke-linejoin="round" stroke-width="2"/><path d="M58,63.5,62,67" transform="translate(-45.3 -11.2)" fill="none" stroke="#000" stroke-linecap="round" stroke-linejoin="round" stroke-width="2"/></svg>