<svg xmlns="http://www.w3.org/2000/svg" viewBox="0 0 231.1 217"><title>rrererererrere</title><path d="M81,62.4c16.3,1.4,50,13.8,42.7,35.6-4,12.2-12,10.3-22.4,10.2a58.9,58.9,0,0,0-34.3,10c-19.7,12.9-29.3-14.8-24.2-29.3S64.9,60.5,81,62.4Zm.5,2.6C65.6,66.9,52,75.3,46.1,91c-4.7,12.4,1.8,33.9,19.2,24.2,13.3-7.4,24.1-9.5,39-10.2,10.8-.5,26.9-9,13.8-21.9C108,73.2,96.4,66.1,81.5,65Z" transform="translate(-9.9 -11.3)"/><path d="M194.8,168c15,.4,28.2,4.7,37.7,16.6s3.5,27.3-11.2,26.8c-12.9-.5-24.1,4-33.5,12-6.2,5.3-12.6,6.2-19.2,3.2s-12-9.7-11.9-18.6c.2-20.1,8.7-32.4,27.4-38.5C187.5,168.5,191.2,168.5,194.8,168Zm23.5,40.7c14.8,1.3,17.4-11.7,12.8-19.7a34.7,34.7,0,0,0-9.9-11c-22.3-15.6-67.9-3.6-61.8,29.7,2.6,14.5,13.8,21.4,26.7,12.4C195.6,213.5,205.5,207.9,218.3,208.7Z" transform="translate(-9.9 -11.3)"/><path d="M177.1,132.2c-.6-25,30.8-23.2,29.3,1.9-.5,9.2-4.8,22-16.1,19.4C180.6,151.3,179.3,140,177.1,132.2Zm3.2,1.8c1.6,17.5,20.6,22.1,21.9,1.7.4-5.2-.8-14.3-6.3-16.9C185.3,113.9,182.7,127,180.3,134Z" transform="translate(-9.9 -11.3)"/><path d="M149.5,183.4c.8,24.1-30.8,10.4-32.3-7.7C115,147.6,147.7,163.7,149.5,183.4Zm-2.8,1.6c0-7.9-13-26.3-22.3-21.8-15,7.4,3.5,26.2,12.2,29.6C141.9,194.8,146.7,190.8,146.7,185Z" transform="translate(-9.9 -11.3)"/><path d="M75,30.4C77.9,21.9,79.9,9,92.3,11.7c8.5,1.8,12,14.1,11.8,22C103.4,60.9,77.1,52.5,75,30.4Zm25.1,5C98.8,28.5,98.7,16,89.2,15.3S78.7,23.4,79.1,30.5C80,46.6,99.2,58,100.1,35.4Z" transform="translate(-9.9 -11.3)"/><path d="M69.2,38.5c-2.9,9.3-3.9,21.4-16.4,18.7-9.7-2.1-13.8-13-13.9-21.8s2.3-17.5,12.8-17.2S65.7,30.1,69.2,38.5Zm-27.1-8c-.2,11.7,15.1,34.1,22.7,15.3C73,25.4,41.1,12.4,42.1,30.5Z" transform="translate(-9.9 -11.3)"/><path d="M155.3,167.5c-18.9,2.5-28.4-43-3.1-39.9C171.8,129.9,179,167.4,155.3,167.5Zm-1.3-3.3c22.5.7,12.9-32.1-4.3-33.7S139.3,162,154,164.2Z" transform="translate(-9.9 -11.3)"/><path d="M9.9,59.5c.1-25,31.1-11.1,31.3,6.6C41.5,89.2,10.3,78.9,9.9,59.5ZM36,66.2c-.5-12.5-20.6-27.4-23.6-8.8S39.2,81.9,36,66.2Z" transform="translate(-9.9 -11.3)"/><path d="M111.1,47.8c.6-6,1.5-13.1,6.4-19.2s11.4-5.8,16,.5c6.6,9.2,10.8,29.8-3.4,35.2C119.2,68.4,110.6,58,111.1,47.8Zm25.6-1.2c.8-5.2-3.9-17.4-10.2-18.5C118,26.8,114.9,40.4,113.9,46,110.1,66.8,139.3,66.5,136.7,46.6Z" transform="translate(-9.9 -11.3)"/><path d="M241,137.1c-2.5,11.2-8,31.4-23.4,18.4-18.7-15.9,22.5-49.7,22.5-18.6Zm-3.1,3.4c-.7-4.6-.6-14.6-8.4-12.3-28.4,8.5.5,40,6.1,22.3C236.7,147.1,237.2,143.4,237.9,140.5Z" transform="translate(-9.9 -11.3)"/></svg>