<svg xmlns="http://www.w3.org/2000/svg" viewBox="0 0 222.4 211.9"><title>nature</title><path d="M130.6,148.5c17.3-10.2,33.9-23.6,54.9-24.1,10.3-.2,48.1,6.2,48.6,18,.8,18.6,1.4,37.2,2,55.8.1,3.2,0,6.4,0,10.1a2.4,2.4,0,0,1-1.5.3c-18.6-7.7-35.8-1.4-53.2,5-19.9,7.4-40.1,13.1-61.8,11.7-13.9-.9-25.9-7.2-37.5-13.9C62.6,200,43.5,187.9,24.2,176c-35.4-22,28.7-52.2,50-40.4,9.8,5.5,28.8,20,37.9,12.9,5.1-4,5.3-33.2,5.9-40.5-44,0-90.7-21.6-88.3-75.7,1-23,12.2-20.7,36.3-13.6s41.9,22.6,57.3,40.8c8.3-18.4,22.3-32.3,41.2-39.7,5.3-2.1,48.9-12.4,47.8-.5-4.4,46-23.2,84.9-73,90.4-21.2,2.3-12.7,17.1-11,37.1ZM149,177.7l.5,1.1a105.1,105.1,0,0,1-23.1,7.9c-12.6,3-31.7,12.2-44,4.7S77.9,169.3,67.5,165c-8.6-3.5-30.3-18.6-39.7-15.3s-18.3,11.3-4.7,20c20.7,13.2,41.1,27.1,62.5,39.1a101.8,101.8,0,0,0,35,12c32.1,4.4,63.9-13.7,94.9-19.1,5.8-1.1,12.2,1.4,17.1,2.1,0-19.2.2-38.3-.2-57.3,0-2.3-2.3-5.5-4.4-6.6-46.5-24.3-65.8,4.9-108.7,13.2-10.5,2-37.3,7-40.9,18.8-6.6,21.9,23.6,17.8,36.7,15.2C126.6,184.8,137.7,180.9,149,177.7ZM31.5,17.2c-.7,20.7,5.7,38.2,14,55.1s20,29.4,39.3,31.9c9.7,1.2,19.8.2,30.5.2-16.5-17.6-31.9-34-47.2-50.5l1.3-1.4C85.4,68,101.5,83.4,117.5,99c1.2-9.4,8.2-31.5,1.9-39.9C97,29.5,65.8,23.7,31.5,17.2Zm91.7,83.6c21.9-13.7,37.2-34.3,54.5-52.9C164.9,71.7,144,87.8,124.2,106c10.9,1.4,24-1.5,34.4-4.9,38.8-12.6,42.5-47.3,51.3-82.3-20.5-6.7-55.6,2.9-71.1,20.7S120.7,77.8,123.2,100.8ZM46.3,138.2l36.9,19.4c5.5,2.8,14.2-3.2,18.8-5.3C86.8,144.3,63.8,125.6,46.3,138.2Zm37.6,22.5c-14.3-6.7-27.6-13.5-41.3-19.1-3.1-1.3-7.8,1.4-11.8,2.2C43.1,150.9,69.9,171.6,83.9,160.7Zm32.9-8.5c12.8-8.2,6.2-22.7,4.4-36.8h-.9C119.2,126.9,118.2,138.2,116.8,152.2Z" transform="translate(-13.8 -13.7)"/></svg>